name 900006_25ik_lsw.mot
datacolumns 165
datarows 4
range 1.13333000 1.15833000
cursor 1.0 1.0 0.0
keys m_key
wrap
enforce_loops no
enforce_constraints no
calc_derivatives 0.008333
event_color 1.000000 0.000000 1.000000
endheader

                time	          calcn_r_tx	          calcn_r_ty	          calcn_r_tz	          calcn_r_r1	          calcn_r_r2	          calcn_r_r3	          calcn_l_tx	          calcn_l_ty	          calcn_l_tz	          calcn_l_r1	          calcn_l_r2	          calcn_l_r3	           pelvis_tz	           pelvis_tx	           pelvis_ty	         pelvis_tilt	         pelvis_list	     pelvis_rotation	       hip_flexion_r	     hip_adduction_r	      hip_rotation_r	        knee_angle_r	       ankle_angle_r	    subtalar_angle_r	         mtp_angle_r	       hip_flexion_l	     hip_adduction_l	      hip_rotation_l	        knee_angle_l	       ankle_angle_l	    subtalar_angle_l	         mtp_angle_l	    lumbar_extension	      lumbar_bending	     lumbar_rotation	     ground_force_px	     ground_force_py	     ground_force_pz	     ground_force_vx	     ground_force_vy	     ground_force_vz	     ground_force_px	     ground_force_py	     ground_force_pz	     ground_force_vx	     ground_force_vy	     ground_force_vz	     ground_torque_x	     ground_torque_y	     ground_torque_z	     ground_torque_x	     ground_torque_y	     ground_torque_z	           midhip_px	           midhip_py	           midhip_pz	            hip_r_px	            hip_r_py	            hip_r_pz	            hip_l_px	            hip_l_py	            hip_l_pz	           knee_r_px	           knee_r_py	           knee_r_pz	           knee_l_px	           knee_l_py	           knee_l_pz	          ankle_r_px	          ankle_r_py	          ankle_r_pz	          ankle_l_px	          ankle_l_py	          ankle_l_pz	          midasis_px	          midasis_py	          midasis_pz	           asis_r_px	           asis_r_py	           asis_r_pz	           asis_l_px	           asis_l_py	           asis_l_pz	           psis_r_px	           psis_r_py	           psis_r_pz	           psis_l_px	           psis_l_py	           psis_l_pz	     epicondLat_r_px	     epicondLat_r_py	     epicondLat_r_pz	     epicondLat_l_px	     epicondLat_l_py	     epicondLat_l_pz	     epicondMed_r_px	     epicondMed_r_py	     epicondMed_r_pz	     epicondMed_l_px	     epicondMed_l_py	     epicondMed_l_pz	   malleolusLat_r_px	   malleolusLat_r_py	   malleolusLat_r_pz	   malleolusLat_l_px	   malleolusLat_l_py	   malleolusLat_l_pz	  malleolusMedv_r_px	  malleolusMedv_r_py	  malleolusMedv_r_pz	  malleolusMedv_l_px	  malleolusMedv_l_py	  malleolusMedv_l_pz	     sternalnotch_px	     sternalnotch_py	     sternalnotch_pz	   xyphoidprocess_px	   xyphoidprocess_py	   xyphoidprocess_pz	             neck_px	             neck_py	             neck_pz	            toe_r_px	            toe_r_py	            toe_r_pz	            toe_l_px	            toe_l_py	            toe_l_pz	      thighwand_r_px	      thighwand_r_py	      thighwand_r_pz	      thighwand_l_px	      thighwand_l_py	      thighwand_l_pz	      upperleg1_r_px	      upperleg1_r_py	      upperleg1_r_pz	      upperleg1_l_px	      upperleg1_l_py	      upperleg1_l_pz	      upperleg2_r_px	      upperleg2_r_py	      upperleg2_r_pz	      upperleg2_l_px	      upperleg2_l_py	      upperleg2_l_pz	      shankwand_r_px	      shankwand_r_py	      shankwand_r_pz	      shankwand_l_px	      shankwand_l_py	      shankwand_l_pz	      lowerleg1_r_px	      lowerleg1_r_py	      lowerleg1_r_pz	      lowerleg1_l_px	      lowerleg1_l_py	      lowerleg1_l_pz	    subclavicle_r_px	    subclavicle_r_py	    subclavicle_r_pz	    subclavicle_l_px	    subclavicle_l_py	    subclavicle_l_pz	
          1.13333000	         -1.62071566	          0.03300472	          0.33494216	          3.45662551	         -3.96589861	         -0.81324068	         -1.59741995	          0.08217981	          0.20899328	          0.53618448	         -2.27346875	        -11.22166767	          0.31004378	         -1.46706601	          0.83608980	          2.35044094	          2.81502310	         -3.34136485	         -0.45647270	          1.34547409	          0.37636476	         -9.61343715	          7.02593583	          0.00000000	          0.00000000	         15.76152296	          1.89387539	         -3.66805899	        -38.94401173	          9.95597388	          0.00000000	          0.00000000	         -3.77867521	          1.54083130	         -1.49111492	         -1.52362904	          0.00000000	          0.33523514	         -6.72550056	        405.23963749	         -9.57669069	         -1.89573671	          0.00000000	          0.22218932	         -0.00000000	          0.00000000	          0.00000000	          0.00000000	          1.11272856	          0.00000000	          0.00000000	          0.00000000	          0.00000000	         -1.50376873	          0.77504677	          0.30095460	         -1.51495143	          0.76882213	          0.35693809	         -1.49258626	          0.78127104	          0.24497085	         -1.56009157	          0.42151226	          0.35642434	         -1.42712394	          0.43422712	          0.22536248	         -1.57439863	          0.06463090	          0.32895569	         -1.54532655	          0.10107781	          0.22867662	         -1.46954028	          0.84658244	          0.31502142	         -1.47589628	          0.84056299	          0.42584697	         -1.46318413	          0.85260203	          0.20419585	         -1.64719176	          0.87528967	          0.33449606	         -1.64593790	          0.87519921	          0.28054241	         -1.53343132	          0.41717211	          0.41617529	         -1.42260955	          0.43151024	          0.16632779	         -1.54332766	          0.42122877	          0.29752191	         -1.41310871	          0.42652775	          0.28918134	         -1.58043355	          0.06216691	          0.36588576	         -1.56085880	          0.10622759	          0.19604883	         -1.57452050	          0.06290927	          0.29549439	         -1.54015187	          0.10082859	          0.26185939	         -1.48153106	          1.20074053	          0.31345431	         -1.47143221	          1.09954591	          0.30347527	         -1.59033964	          1.26967154	          0.31504714	         -1.49158621	          0.04645589	          0.34725384	         -1.46765477	          0.06686418	          0.20203872	         -1.40996823	          0.55800894	          0.39335320	         -1.34959774	          0.60565646	          0.16451138	         -1.46465872	          0.59499025	          0.42920513	         -1.38736035	          0.63877791	          0.22866677	         -1.47553818	          0.53965085	          0.42288288	         -1.37843073	          0.58166819	          0.23541331	         -1.44281635	          0.17175202	          0.36501795	         -1.54881095	          0.21405556	          0.11002107	         -1.52281976	          0.16092587	          0.34793350	         -1.53092064	          0.19871134	          0.18614094	         -1.48340512	          1.19644208	          0.36968132	         -1.47452723	          1.20511550	          0.26386252	
          1.14166333	         -1.62067162	          0.03254782	          0.33570182	          3.41700897	         -4.28456966	         -0.78026128	         -1.57809160	          0.07763401	          0.21081387	          0.53937083	         -2.27724223	         -9.55173502	          0.31134863	         -1.46286889	          0.83547088	          2.33405116	          2.77716865	         -3.47402036	         -0.94572446	          1.35554061	          0.23468096	         -9.25987068	          7.21618968	          0.00000000	          0.00000000	         16.41546280	          1.83916522	         -3.77113668	        -37.74769845	          9.79201698	          0.00000000	          0.00000000	         -3.84659411	          1.38210873	         -1.48018119	         -1.52167159	          0.00000000	          0.33562508	         -5.67461603	        406.93018291	         -9.60315097	         -1.89507034	          0.00000000	          0.22216449	          0.00000000	         -0.00000000	         -0.00000000	          0.00000000	          1.16795203	          0.00000000	          0.00000000	         -0.00000000	          0.00000000	         -1.49969169	          0.77480851	          0.30142116	         -1.51089687	          0.76852923	          0.35739408	         -1.48848669	          0.78108743	          0.24544807	         -1.55838657	          0.42140439	          0.35652690	         -1.41807580	          0.43470058	          0.22573106	         -1.57426390	          0.06462830	          0.32885378	         -1.52779019	          0.09831925	          0.22906697	         -1.46538607	          0.84632088	          0.31558077	         -1.47180377	          0.84017528	          0.42642394	         -1.45896819	          0.85246662	          0.20473761	         -1.64307330	          0.87517385	          0.33478182	         -1.64179373	          0.87509670	          0.28068319	         -1.53259477	          0.41709661	          0.41629578	         -1.41519382	          0.43214674	          0.16668972	         -1.54131417	          0.42094141	          0.29780605	         -1.40421475	          0.42657962	          0.28837221	         -1.58045806	          0.06217765	          0.36575810	         -1.54343230	          0.10298164	          0.19641967	         -1.57426684	          0.06305011	          0.29537049	         -1.52267519	          0.09810689	          0.26226040	         -1.47692965	          1.20042094	          0.31375487	         -1.46708695	          1.09917915	          0.30399543	         -1.58560977	          1.26963109	          0.31540827	         -1.49143892	          0.04653558	          0.34716316	         -1.44920569	          0.06623165	          0.20262832	         -1.40791820	          0.55686915	          0.39403072	         -1.34361402	          0.60680858	          0.16449546	         -1.46224099	          0.59447015	          0.42956452	         -1.38207703	          0.63962650	          0.22879571	         -1.47337632	          0.53917117	          0.42326909	         -1.37215285	          0.58253900	          0.23529990	         -1.44269052	          0.17141669	          0.36543526	         -1.53457912	          0.21092144	          0.11038957	         -1.52251142	          0.16102981	          0.34802959	         -1.51628859	          0.19618058	          0.18660354	         -1.47882360	          1.19624696	          0.37001638	         -1.46990659	          1.20467265	          0.26412893	
          1.14999667	         -1.62033155	          0.03235666	          0.33484405	          3.42789626	         -4.69354263	         -0.73485028	         -1.55975255	          0.07397776	          0.21162270	          0.55658485	         -2.15008915	         -8.14191609	          0.31197196	         -1.45845874	          0.83508604	          2.31065260	          2.80630858	         -3.58212985	         -1.38444955	          1.35797532	         -0.01654972	         -8.98461337	          7.45800587	          0.00000000	          0.00000000	         16.96474725	          1.79709894	         -3.94722872	        -36.52520374	          9.45095290	          0.00000000	          0.00000000	         -3.96724159	          1.25057405	         -1.47853256	         -1.51955677	          0.00000000	          0.33601245	         -4.82157541	        409.32353460	         -9.61413771	         -1.89436174	          0.00000000	          0.22218357	         -0.00000000	          0.00000000	          0.00000000	          0.00000000	          1.22844356	          0.00000000	          0.00000000	          0.00000000	          0.00000000	         -1.49557754	          0.77450990	          0.30189178	         -1.50681107	          0.76819938	          0.35785548	         -1.48434412	          0.78082012	          0.24592796	         -1.55673592	          0.42151394	          0.35662215	         -1.40970820	          0.43530132	          0.22613326	         -1.57409007	          0.06462687	          0.32875780	         -1.51027892	          0.09574213	          0.22935814	         -1.46120808	          0.84601025	          0.31612182	         -1.46770073	          0.83978354	          0.42699085	         -1.45471526	          0.85223707	          0.20525276	         -1.63893589	          0.87499972	          0.33499289	         -1.63762724	          0.87492890	          0.28080293	         -1.53162195	          0.41702915	          0.41640995	         -1.40797110	          0.43267629	          0.16707740	         -1.53919721	          0.42081797	          0.29802768	         -1.39603191	          0.42661057	          0.28751780	         -1.58046545	          0.06219746	          0.36563215	         -1.52598644	          0.09991286	          0.19667628	         -1.57402268	          0.06315472	          0.29526198	         -1.50524659	          0.09554356	          0.26256399	         -1.47232727	          1.20003077	          0.31402809	         -1.46275814	          1.09874847	          0.30441011	         -1.58087633	          1.26955678	          0.31569598	         -1.49126378	          0.04661039	          0.34706610	         -1.43085310	          0.06561612	          0.20327506	         -1.40576052	          0.55574733	          0.39485010	         -1.33774026	          0.60780419	          0.16450210	         -1.45974701	          0.59414012	          0.42997555	         -1.37684934	          0.64039902	          0.22905396	         -1.47123466	          0.53872160	          0.42367922	         -1.36610608	          0.58328227	          0.23527322	         -1.44250249	          0.17100457	          0.36591826	         -1.52027467	          0.20783867	          0.11066767	         -1.52220559	          0.16097678	          0.34819945	         -1.50165693	          0.19372015	          0.18698245	         -1.47426279	          1.19593488	          0.37034117	         -1.46526557	          1.20419930	          0.26435264	
          1.15833000	         -1.62008564	          0.03225817	          0.33437497	          3.39304046	         -5.01457450	         -0.80621964	         -1.54212218	          0.07064024	          0.21198787	          0.57097694	         -2.08210231	         -6.75095996	          0.31216453	         -1.45399542	          0.83467448	          2.25797656	          2.82322622	         -3.67588093	         -1.78675916	          1.32321027	         -0.21028340	         -8.72931285	          7.59487656	          0.00000000	          0.00000000	         17.47086478	          1.76483831	         -4.05788131	        -35.29863093	          9.15974652	          0.00000000	          0.00000000	         -4.06189919	          1.21171756	         -1.49041721	         -1.51733927	          0.00000000	          0.33639819	         -4.10833203	        412.30573648	         -9.65364289	         -1.89359309	          0.00000000	          0.22225870	          0.00000000	         -0.00000000	         -0.00000000	          0.00000000	          1.28319644	          0.00000000	          0.00000000	         -0.00000000	          0.00000000	         -1.49141092	          0.77416709	          0.30236382	         -1.50268596	          0.76784676	          0.35831803	         -1.48013592	          0.78048720	          0.24640952	         -1.55506015	          0.42181858	          0.35671786	         -1.40238910	          0.43597812	          0.22656808	         -1.57387790	          0.06462776	          0.32866972	         -1.49281962	          0.09336194	          0.22955771	         -1.45699746	          0.84566289	          0.31664628	         -1.46358890	          0.83939739	          0.42753274	         -1.45040587	          0.85192844	          0.20575971	         -1.63477765	          0.87477794	          0.33511785	         -1.63342886	          0.87470237	          0.28089734	         -1.53049621	          0.41696389	          0.41652107	         -1.40094906	          0.43309929	          0.16749627	         -1.53685423	          0.42085337	          0.29807928	         -1.38880298	          0.42669978	          0.28680145	         -1.58045507	          0.06222770	          0.36550994	         -1.50856694	          0.09704717	          0.19683648	         -1.57381263	          0.06318776	          0.29517739	         -1.48789188	          0.09318232	          0.26278223	         -1.46772214	          1.19959141	          0.31427548	         -1.45841898	          1.09827844	          0.30471252	         -1.57614578	          1.26943962	          0.31590140	         -1.49108858	          0.04665806	          0.34698968	         -1.41261802	          0.06504290	          0.20394367	         -1.40346117	          0.55466014	          0.39580404	         -1.33207792	          0.60863246	          0.16453366	         -1.45717317	          0.59397966	          0.43040677	         -1.37169154	          0.64107126	          0.22940840	         -1.46909099	          0.53829600	          0.42406397	         -1.36037548	          0.58391626	          0.23534903	         -1.44224677	          0.17050123	          0.36646508	         -1.50598113	          0.20486044	          0.11088093	         -1.52193084	          0.16067428	          0.34846517	         -1.48709887	          0.19137156	          0.18727246	         -1.46972924	          1.19552192	          0.37064837	         -1.46059519	          1.20372264	          0.26454493	
